<svg width="32" height="32" viewBox="0 0 32 32" fill="none" xmlns="http://www.w3.org/2000/svg">
<path fill-rule="evenodd" clip-rule="evenodd" d="M14 2.6665C12.1928 2.66666 10.4118 3.09899 8.80565 3.92743C7.1995 4.75587 5.81476 5.95639 4.76695 7.42884C3.71914 8.90129 3.03865 10.603 2.78225 12.3919C2.52585 14.1808 2.70097 16.0051 3.29301 17.7126C3.88505 19.4201 4.87683 20.9612 6.18562 22.2075C7.49441 23.4537 9.08225 24.3689 10.8167 24.8766C12.5511 25.3844 14.3818 25.47 16.156 25.1264C17.9302 24.7827 19.5966 24.0198 21.016 22.9012L25.8853 27.7705C26.1368 28.0134 26.4736 28.1478 26.8232 28.1447C27.1728 28.1417 27.5072 28.0015 27.7544 27.7543C28.0016 27.5071 28.1418 27.1726 28.1449 26.823C28.1479 26.4734 28.0135 26.1366 27.7706 25.8852L22.9013 21.0158C24.2186 19.3447 25.0389 17.3364 25.2681 15.2208C25.4974 13.1052 25.1264 10.9679 24.1976 9.0533C23.2688 7.13873 21.8198 5.52431 20.0164 4.39481C18.2129 3.26531 16.1279 2.66636 14 2.6665ZM5.33331 13.9998C5.33331 11.7013 6.2464 9.49689 7.87171 7.87158C9.49703 6.24626 11.7014 5.33317 14 5.33317C16.2985 5.33317 18.5029 6.24626 20.1282 7.87158C21.7535 9.49689 22.6666 11.7013 22.6666 13.9998C22.6666 16.2984 21.7535 18.5028 20.1282 20.1281C18.5029 21.7534 16.2985 22.6665 14 22.6665C11.7014 22.6665 9.49703 21.7534 7.87171 20.1281C6.2464 18.5028 5.33331 16.2984 5.33331 13.9998Z" fill="#FDFDFD"/>
</svg>
