<svg width="26" height="29" viewBox="0 0 26 29" fill="none" xmlns="http://www.w3.org/2000/svg">
<path d="M24.3636 25.763L22.9156 9.85833C22.8686 9.34012 22.6769 8.86271 22.3771 8.51744C22.0774 8.17216 21.6906 7.98326 21.2908 7.98687H17.8759C17.8759 6.2996 17.3624 4.68143 16.4483 3.48835C15.5342 2.29527 14.2945 1.625 13.0018 1.625C11.7091 1.625 10.4693 2.29527 9.55527 3.48835C8.64119 4.68143 8.12767 6.2996 8.12767 7.98687H4.70868C4.3089 7.98326 3.92214 8.17216 3.62238 8.51744C3.32263 8.86271 3.13093 9.34012 3.08397 9.85833L1.63595 25.763C1.60941 26.0599 1.63125 26.3607 1.70002 26.6457C1.7688 26.9308 1.88296 27.1937 2.03502 27.4171C2.18818 27.6415 2.37586 27.8212 2.58582 27.9445C2.79578 28.0678 3.02331 28.132 3.25355 28.1328H22.7419C22.9735 28.1335 23.2026 28.0701 23.4141 27.9467C23.6255 27.8233 23.8145 27.6428 23.9686 27.4171C24.1199 27.1932 24.2333 26.9301 24.3014 26.6451C24.3695 26.3601 24.3907 26.0595 24.3636 25.763ZM13.0018 3.74562C13.8636 3.74562 14.6901 4.19247 15.2995 4.98786C15.9089 5.78325 16.2512 6.86202 16.2512 7.98687H9.75238C9.75238 6.86202 10.0947 5.78325 10.7041 4.98786C11.3135 4.19247 12.14 3.74562 13.0018 3.74562ZM3.25355 26.0122L4.70868 10.1075H8.12767V13.2884C8.12767 13.5696 8.21326 13.8393 8.3656 14.0382C8.51795 14.237 8.72457 14.3487 8.94002 14.3487C9.15547 14.3487 9.3621 14.237 9.51444 14.0382C9.66679 13.8393 9.75238 13.5696 9.75238 13.2884V10.1075H16.2512V13.2884C16.2512 13.5696 16.3368 13.8393 16.4891 14.0382C16.6415 14.237 16.8481 14.3487 17.0636 14.3487C17.279 14.3487 17.4856 14.237 17.638 14.0382C17.7903 13.8393 17.8759 13.5696 17.8759 13.2884V10.1075H21.303L22.7419 26.0122H3.25355Z" fill="#FDFDFD"/>
</svg>
