<?xml version="1.0" encoding="UTF-8"?>
<svg version="1.1" xmlns="http://www.w3.org/2000/svg" width="111" height="128">
<path d="M0 0 C36.63 0 73.26 0 111 0 C111 42.24 111 84.48 111 128 C74.37 128 37.74 128 0 128 C0 85.76 0 43.52 0 0 Z " fill="#FEFEFD" transform="translate(0,0)"/>
<path d="M0 0 C3.45201639 1.47721422 5.64961936 3.43794001 8.25 6.125 C8.95640625 6.84945313 9.6628125 7.57390625 10.390625 8.3203125 C11.18726563 9.15175781 11.18726563 9.15175781 12 10 C15.45201639 8.52278578 17.64961936 6.56205999 20.25 3.875 C21.30960938 2.78832031 21.30960938 2.78832031 22.390625 1.6796875 C22.92171875 1.12539063 23.4528125 0.57109375 24 0 C27.875 1.75 27.875 1.75 29 4 C29.53676049 7.83400347 29.87196229 11.49693214 27.8828125 14.92578125 C26.5 16.5625 26.5 16.5625 24 19 C25.66548822 24.8183939 29.84789931 28.0171248 34.125 32.0078125 C41.24127698 38.83163974 44.09806432 45.12550742 44.4375 55 C44.50598916 63.77517376 41.8385529 70.47247607 36.171875 77.15625 C29.31499035 83.7343995 21.8980148 86.20285794 12.5 86.5625 C3.63568685 86.29442601 -2.3913134 83.65139738 -8.875 77.6875 C-16.1586181 69.83699653 -17.70346123 60.84491722 -17.48046875 50.4609375 C-17.04262502 43.98306021 -14.11263501 38.92402528 -10 34 C-8.35749282 32.63701588 -6.69287979 31.29988984 -5 30 C-3.62631655 28.36643049 -2.28062485 26.7074998 -1 25 C0.875 25.25 0.875 25.25 3 26 C5.35363601 29.17740861 5.46228437 32.14763024 5 36 C3.37540399 38.76783024 1.54360394 41.27468143 -0.37890625 43.83984375 C-3.38371816 48.16300618 -4.75230856 51.44724563 -4.421875 56.76171875 C-3.4320373 62.01335764 -1.27204688 65.81881361 2.625 69.4375 C8.070119 73.01981513 13.62251191 72.55152455 20 72 C25.40337704 69.5353017 28.54320679 65.64198303 30.75 60.125 C31.57932541 53.07573403 31.31210948 48.70720372 27 43 C24.68767578 40.43750025 24.68767578 40.43750025 22 38 C20.76839613 36.75240127 19.53933526 35.50228828 18.3125 34.25 C15.90336079 31.78772084 15.90336079 31.78772084 13 30 C13 29.34 13 28.68 13 28 C12.4225 27.773125 11.845 27.54625 11.25 27.3125 C8.40408619 25.65238361 7.00158079 23.60812043 5 21 C4.13375 20.13375 3.2675 19.2675 2.375 18.375 C-1.85684211 14.14315789 -1.85684211 14.14315789 -2.265625 10.87890625 C-2.26046875 10.11449219 -2.2553125 9.35007812 -2.25 8.5625 C-2.25515625 7.80066406 -2.2603125 7.03882813 -2.265625 6.25390625 C-1.9747292 3.78556982 -1.22975656 2.142314 0 0 Z " fill="#F5A123" transform="translate(42,21)"/>
</svg>
